<mxfile host="app.diagrams.net" modified="2023-07-04T15:12:40.355Z" agent="Mozilla/5.0 (Macintosh; Intel Mac OS X 10_15_7) AppleWebKit/537.36 (KHTML, like Gecko) Chrome/114.0.0.0 Safari/537.36" etag="E4ArfZ6anmJP9ZgUiSJJ" version="21.5.0" type="device">
  <diagram name="Page-1" id="wuq8NDwx-iSsKOT145gf">
    <mxGraphModel dx="3000" dy="2092" grid="1" gridSize="10" guides="1" tooltips="1" connect="1" arrows="1" fold="1" page="1" pageScale="1" pageWidth="827" pageHeight="1169" math="0" shadow="0">
      <root>
        <mxCell id="0" />
        <mxCell id="1" parent="0" />
        <mxCell id="qqwrzv5PhVYbnd2tnPND-15" value="" style="whiteSpace=wrap;html=1;aspect=fixed;" vertex="1" parent="1">
          <mxGeometry x="110" y="20" width="560" height="560" as="geometry" />
        </mxCell>
        <mxCell id="qqwrzv5PhVYbnd2tnPND-1" value="Intermediate Storage" style="shape=cylinder3;whiteSpace=wrap;html=1;boundedLbl=1;backgroundOutline=1;size=15;" vertex="1" parent="1">
          <mxGeometry x="354" y="90" width="86" height="100" as="geometry" />
        </mxCell>
        <mxCell id="qqwrzv5PhVYbnd2tnPND-2" value="Connector&lt;br&gt;" style="whiteSpace=wrap;html=1;aspect=fixed;" vertex="1" parent="1">
          <mxGeometry x="120" y="240" width="80" height="80" as="geometry" />
        </mxCell>
        <mxCell id="qqwrzv5PhVYbnd2tnPND-3" value="connector lib&lt;br&gt;" style="rounded=0;whiteSpace=wrap;html=1;" vertex="1" parent="1">
          <mxGeometry x="130" y="240" width="60" height="30" as="geometry" />
        </mxCell>
        <mxCell id="qqwrzv5PhVYbnd2tnPND-4" value="Connector&lt;br&gt;" style="whiteSpace=wrap;html=1;aspect=fixed;" vertex="1" parent="1">
          <mxGeometry x="580" y="240" width="80" height="80" as="geometry" />
        </mxCell>
        <mxCell id="qqwrzv5PhVYbnd2tnPND-5" value="connector lib&lt;br&gt;" style="rounded=0;whiteSpace=wrap;html=1;" vertex="1" parent="1">
          <mxGeometry x="590" y="240" width="60" height="30" as="geometry" />
        </mxCell>
        <mxCell id="qqwrzv5PhVYbnd2tnPND-6" value="" style="endArrow=classic;html=1;rounded=0;" edge="1" parent="1" target="qqwrzv5PhVYbnd2tnPND-1">
          <mxGeometry width="50" height="50" relative="1" as="geometry">
            <mxPoint x="170" y="240" as="sourcePoint" />
            <mxPoint x="220" y="190" as="targetPoint" />
          </mxGeometry>
        </mxCell>
        <mxCell id="qqwrzv5PhVYbnd2tnPND-7" value="" style="endArrow=classic;html=1;rounded=0;entryX=1.07;entryY=0.76;entryDx=0;entryDy=0;entryPerimeter=0;" edge="1" parent="1" target="qqwrzv5PhVYbnd2tnPND-1">
          <mxGeometry width="50" height="50" relative="1" as="geometry">
            <mxPoint x="620" y="240" as="sourcePoint" />
            <mxPoint x="670" y="190" as="targetPoint" />
          </mxGeometry>
        </mxCell>
        <mxCell id="qqwrzv5PhVYbnd2tnPND-11" value="Activation Engine" style="whiteSpace=wrap;html=1;aspect=fixed;" vertex="1" parent="1">
          <mxGeometry x="327" y="280" width="140" height="140" as="geometry" />
        </mxCell>
        <mxCell id="qqwrzv5PhVYbnd2tnPND-12" value="Duckdb" style="rounded=0;whiteSpace=wrap;html=1;" vertex="1" parent="1">
          <mxGeometry x="337" y="280" width="120" height="60" as="geometry" />
        </mxCell>
        <mxCell id="qqwrzv5PhVYbnd2tnPND-14" value="" style="shape=flexArrow;endArrow=classic;startArrow=classic;html=1;rounded=0;entryX=0.5;entryY=1;entryDx=0;entryDy=0;entryPerimeter=0;exitX=0.5;exitY=0;exitDx=0;exitDy=0;" edge="1" parent="1" source="qqwrzv5PhVYbnd2tnPND-12" target="qqwrzv5PhVYbnd2tnPND-1">
          <mxGeometry width="100" height="100" relative="1" as="geometry">
            <mxPoint x="390" y="280" as="sourcePoint" />
            <mxPoint x="490" y="180" as="targetPoint" />
          </mxGeometry>
        </mxCell>
        <mxCell id="qqwrzv5PhVYbnd2tnPND-16" value="&lt;b&gt;&lt;font style=&quot;font-size: 23px;&quot;&gt;DATA PLANE&lt;/font&gt;&lt;/b&gt;" style="text;html=1;strokeColor=none;fillColor=none;align=center;verticalAlign=middle;whiteSpace=wrap;rounded=0;" vertex="1" parent="1">
          <mxGeometry x="130" y="500" width="180" height="30" as="geometry" />
        </mxCell>
        <mxCell id="qqwrzv5PhVYbnd2tnPND-17" value="" style="whiteSpace=wrap;html=1;aspect=fixed;" vertex="1" parent="1">
          <mxGeometry x="228" y="690" width="352" height="352" as="geometry" />
        </mxCell>
        <mxCell id="qqwrzv5PhVYbnd2tnPND-19" value="&lt;b&gt;&lt;font style=&quot;font-size: 23px;&quot;&gt;CONTROL PLANE&lt;/font&gt;&lt;/b&gt;" style="text;html=1;strokeColor=none;fillColor=none;align=center;verticalAlign=middle;whiteSpace=wrap;rounded=0;" vertex="1" parent="1">
          <mxGeometry x="222" y="1010" width="218" height="30" as="geometry" />
        </mxCell>
        <mxCell id="qqwrzv5PhVYbnd2tnPND-20" value="&lt;font style=&quot;font-size: 14px;&quot;&gt;BACKEND API&lt;/font&gt;" style="rounded=0;whiteSpace=wrap;html=1;" vertex="1" parent="1">
          <mxGeometry x="337" y="720" width="120" height="60" as="geometry" />
        </mxCell>
        <mxCell id="qqwrzv5PhVYbnd2tnPND-21" value="&lt;font style=&quot;font-size: 14px;&quot;&gt;UI&lt;/font&gt;" style="rounded=0;whiteSpace=wrap;html=1;" vertex="1" parent="1">
          <mxGeometry x="337" y="860" width="120" height="60" as="geometry" />
        </mxCell>
        <mxCell id="qqwrzv5PhVYbnd2tnPND-22" value="" style="endArrow=classic;html=1;rounded=0;entryX=0.5;entryY=1;entryDx=0;entryDy=0;" edge="1" parent="1" source="qqwrzv5PhVYbnd2tnPND-21" target="qqwrzv5PhVYbnd2tnPND-20">
          <mxGeometry width="50" height="50" relative="1" as="geometry">
            <mxPoint x="370" y="610" as="sourcePoint" />
            <mxPoint x="420" y="560" as="targetPoint" />
          </mxGeometry>
        </mxCell>
        <mxCell id="qqwrzv5PhVYbnd2tnPND-23" value="" style="endArrow=classic;html=1;rounded=0;entryX=0.5;entryY=1;entryDx=0;entryDy=0;" edge="1" parent="1" source="qqwrzv5PhVYbnd2tnPND-20" target="qqwrzv5PhVYbnd2tnPND-11">
          <mxGeometry width="50" height="50" relative="1" as="geometry">
            <mxPoint x="370" y="610" as="sourcePoint" />
            <mxPoint x="420" y="560" as="targetPoint" />
          </mxGeometry>
        </mxCell>
      </root>
    </mxGraphModel>
  </diagram>
</mxfile>
